<svg xmlns="http://www.w3.org/2000/svg" viewBox="0 0 24 24">
  <path d="M12.042 23.648c-4.757 0-10.042-3.386-10.042-11.648 0-8.363 5.434-11.998 10.042-11.998 4.608 0 10.042 3.635 10.042 11.998 0 8.262-5.285 11.648-10.042 11.648zm0-21.016c-3.607 0-7.958 2.535-7.958 9.368 0 6.93 4.25 9.018 7.958 9.018 3.708 0 7.958-2.088 7.958-9.018 0-6.833-4.35-9.368-7.958-9.368z" fill="#4F5D7F"/>
  <path d="M10.875 12.191h4.5v4.5h-4.5v-4.5z" fill="#5059C9"/>
  <path d="M17.688 7.875c0 1.519-1.231 2.75-2.75 2.75-1.519 0-2.75-1.231-2.75-2.75 0-1.519 1.231-2.75 2.75-2.75 1.519 0 2.75 1.231 2.75 2.75z" fill="#5059C9"/>
  <path d="M9.062 16.312c0 1.519-1.231 2.75-2.75 2.75-1.519 0-2.75-1.231-2.75-2.75 0-1.519 1.231-2.75 2.75-2.75 1.519 0 2.75 1.231 2.75 2.75z" fill="#7B83EB"/>
</svg>
